<svg xmlns="http://www.w3.org/2000/svg" xmlns:xlink="http://www.w3.org/1999/xlink" width="1080" zoomAndPan="magnify" viewBox="0 0 810 1012.49997" height="1350" preserveAspectRatio="xMidYMid meet" version="1.2"><defs><clipPath id="cb02c33473"><path d="M 0.199219 0 L 809.800781 0 L 809.800781 1012 L 0.199219 1012 Z M 0.199219 0 "/></clipPath><filter x="0%" y="0%" width="100%" filterUnits="objectBoundingBox" id="f227e4fa96" height="100%"><feColorMatrix values="0 0 0 0 1 0 0 0 0 1 0 0 0 0 1 0 0 0 1 0" type="matrix" in="SourceGraphic"/></filter><clipPath id="94a60ec565"><path d="M 0.199219 0 L 809.800781 0 L 809.800781 1012 L 0.199219 1012 Z M 0.199219 0 "/></clipPath><clipPath id="891679a276"><rect x="0" width="810" y="0" height="1012"/></clipPath><clipPath id="489d4dd493"><path d="M 145.238281 147.964844 L 670.996094 147.964844 L 670.996094 830.542969 L 145.238281 830.542969 Z M 145.238281 147.964844 "/></clipPath><clipPath id="ecbbab4383"><path d="M 183.472656 147.964844 L 633.335938 147.964844 C 643.472656 147.964844 653.199219 151.992188 660.367188 159.164062 C 667.539062 166.332031 671.566406 176.058594 671.566406 186.195312 L 671.566406 793.058594 C 671.566406 803.195312 667.539062 812.921875 660.367188 820.089844 C 653.199219 827.261719 643.472656 831.289062 633.335938 831.289062 L 183.472656 831.289062 C 173.332031 831.289062 163.609375 827.261719 156.4375 820.089844 C 149.269531 812.921875 145.238281 803.195312 145.238281 793.058594 L 145.238281 186.195312 C 145.238281 176.058594 149.269531 166.332031 156.4375 159.164062 C 163.609375 151.992188 173.332031 147.964844 183.472656 147.964844 Z M 183.472656 147.964844 "/></clipPath><mask id="4a21af5587"><g filter="url(#f227e4fa96)"><g transform="matrix(0.486678,0,0,-0.486678,-0.0544704,332.383498)"><image width="527" href="" height="683" preserveAspectRatio="xMidYMid meet"/></g></g></mask><linearGradient x1="128" gradientTransform="matrix(2.054748,0,0,-2.054748,0.111923,682.96436)" y1="-0.0173452" x2="128" gradientUnits="userSpaceOnUse" y2="332.383498" id="3a69b9a0f3"><stop style="stop-color:#f5b0e6;stop-opacity:1;" offset="0"/><stop style="stop-color:#f5b0e6;stop-opacity:1;" offset="0.0078125"/><stop style="stop-color:#f5b1e6;stop-opacity:1;" offset="0.015625"/><stop style="stop-color:#f5b1e6;stop-opacity:1;" offset="0.0234375"/><stop style="stop-color:#f5b2e7;stop-opacity:1;" offset="0.03125"/><stop style="stop-color:#f5b3e7;stop-opacity:1;" offset="0.0390625"/><stop style="stop-color:#f5b3e7;stop-opacity:1;" offset="0.046875"/><stop style="stop-color:#f6b4e7;stop-opacity:1;" offset="0.0546875"/><stop style="stop-color:#f6b5e7;stop-opacity:1;" offset="0.0625"/><stop style="stop-color:#f6b5e8;stop-opacity:1;" offset="0.0703125"/><stop style="stop-color:#f6b6e8;stop-opacity:1;" offset="0.078125"/><stop style="stop-color:#f6b6e8;stop-opacity:1;" offset="0.0859375"/><stop style="stop-color:#f6b7e8;stop-opacity:1;" offset="0.09375"/><stop style="stop-color:#f6b8e8;stop-opacity:1;" offset="0.101562"/><stop style="stop-color:#f6b8e9;stop-opacity:1;" offset="0.109375"/><stop style="stop-color:#f6b9e9;stop-opacity:1;" offset="0.117187"/><stop style="stop-color:#f6bae9;stop-opacity:1;" offset="0.125"/><stop style="stop-color:#f6bae9;stop-opacity:1;" offset="0.132812"/><stop style="stop-color:#f6bbe9;stop-opacity:1;" offset="0.140625"/><stop style="stop-color:#f6bbea;stop-opacity:1;" offset="0.148437"/><stop style="stop-color:#f7bcea;stop-opacity:1;" offset="0.15625"/><stop style="stop-color:#f7bdea;stop-opacity:1;" offset="0.164062"/><stop style="stop-color:#f7bdea;stop-opacity:1;" offset="0.171875"/><stop style="stop-color:#f7beea;stop-opacity:1;" offset="0.179687"/><stop style="stop-color:#f7beeb;stop-opacity:1;" offset="0.1875"/><stop style="stop-color:#f7bfeb;stop-opacity:1;" offset="0.195312"/><stop style="stop-color:#f7c0eb;stop-opacity:1;" offset="0.203125"/><stop style="stop-color:#f7c0eb;stop-opacity:1;" offset="0.210937"/><stop style="stop-color:#f7c1eb;stop-opacity:1;" offset="0.21875"/><stop style="stop-color:#f7c2ec;stop-opacity:1;" offset="0.226562"/><stop style="stop-color:#f7c2ec;stop-opacity:1;" offset="0.234375"/><stop style="stop-color:#f7c3ec;stop-opacity:1;" offset="0.242187"/><stop style="stop-color:#f8c3ec;stop-opacity:1;" offset="0.25"/><stop style="stop-color:#f8c4ec;stop-opacity:1;" offset="0.257812"/><stop style="stop-color:#f8c5ed;stop-opacity:1;" offset="0.265625"/><stop style="stop-color:#f8c5ed;stop-opacity:1;" offset="0.273437"/><stop style="stop-color:#f8c6ed;stop-opacity:1;" offset="0.28125"/><stop style="stop-color:#f8c6ed;stop-opacity:1;" offset="0.289062"/><stop style="stop-color:#f8c7ed;stop-opacity:1;" offset="0.296875"/><stop style="stop-color:#f8c8ee;stop-opacity:1;" offset="0.304687"/><stop style="stop-color:#f8c8ee;stop-opacity:1;" offset="0.3125"/><stop style="stop-color:#f8c9ee;stop-opacity:1;" offset="0.320312"/><stop style="stop-color:#f8caee;stop-opacity:1;" offset="0.328125"/><stop style="stop-color:#f8caee;stop-opacity:1;" offset="0.335937"/><stop style="stop-color:#f8cbee;stop-opacity:1;" offset="0.34375"/><stop style="stop-color:#f9cbef;stop-opacity:1;" offset="0.351562"/><stop style="stop-color:#f9ccef;stop-opacity:1;" offset="0.359375"/><stop style="stop-color:#f9cdef;stop-opacity:1;" offset="0.367187"/><stop style="stop-color:#f9cdef;stop-opacity:1;" offset="0.375"/><stop style="stop-color:#f9ceef;stop-opacity:1;" offset="0.382812"/><stop style="stop-color:#f9cff0;stop-opacity:1;" offset="0.390625"/><stop style="stop-color:#f9cff0;stop-opacity:1;" offset="0.398437"/><stop style="stop-color:#f9d0f0;stop-opacity:1;" offset="0.40625"/><stop style="stop-color:#f9d0f0;stop-opacity:1;" offset="0.414062"/><stop style="stop-color:#f9d1f0;stop-opacity:1;" offset="0.421875"/><stop style="stop-color:#f9d2f1;stop-opacity:1;" offset="0.429687"/><stop style="stop-color:#f9d2f1;stop-opacity:1;" offset="0.4375"/><stop style="stop-color:#f9d3f1;stop-opacity:1;" offset="0.445312"/><stop style="stop-color:#fad3f1;stop-opacity:1;" offset="0.453125"/><stop style="stop-color:#fad4f1;stop-opacity:1;" offset="0.460937"/><stop style="stop-color:#fad5f2;stop-opacity:1;" offset="0.46875"/><stop style="stop-color:#fad5f2;stop-opacity:1;" offset="0.476562"/><stop style="stop-color:#fad6f2;stop-opacity:1;" offset="0.484375"/><stop style="stop-color:#fad7f2;stop-opacity:1;" offset="0.492187"/><stop style="stop-color:#fad7f2;stop-opacity:1;" offset="0.5"/><stop style="stop-color:#fad8f3;stop-opacity:1;" offset="0.507812"/><stop style="stop-color:#fad8f3;stop-opacity:1;" offset="0.515625"/><stop style="stop-color:#fad9f3;stop-opacity:1;" offset="0.523438"/><stop style="stop-color:#fadaf3;stop-opacity:1;" offset="0.53125"/><stop style="stop-color:#fadaf3;stop-opacity:1;" offset="0.539062"/><stop style="stop-color:#fadbf4;stop-opacity:1;" offset="0.546875"/><stop style="stop-color:#fbdbf4;stop-opacity:1;" offset="0.554687"/><stop style="stop-color:#fbdcf4;stop-opacity:1;" offset="0.5625"/><stop style="stop-color:#fbddf4;stop-opacity:1;" offset="0.570312"/><stop style="stop-color:#fbddf4;stop-opacity:1;" offset="0.578125"/><stop style="stop-color:#fbdef5;stop-opacity:1;" offset="0.585937"/><stop style="stop-color:#fbdff5;stop-opacity:1;" offset="0.59375"/><stop style="stop-color:#fbdff5;stop-opacity:1;" offset="0.601562"/><stop style="stop-color:#fbe0f5;stop-opacity:1;" offset="0.609375"/><stop style="stop-color:#fbe0f5;stop-opacity:1;" offset="0.617187"/><stop style="stop-color:#fbe1f6;stop-opacity:1;" offset="0.625"/><stop style="stop-color:#fbe2f6;stop-opacity:1;" offset="0.632812"/><stop style="stop-color:#fbe2f6;stop-opacity:1;" offset="0.640625"/><stop style="stop-color:#fbe3f6;stop-opacity:1;" offset="0.648437"/><stop style="stop-color:#fce4f6;stop-opacity:1;" offset="0.65625"/><stop style="stop-color:#fce4f7;stop-opacity:1;" offset="0.664062"/><stop style="stop-color:#fce5f7;stop-opacity:1;" offset="0.671875"/><stop style="stop-color:#fce5f7;stop-opacity:1;" offset="0.679688"/><stop style="stop-color:#fce6f7;stop-opacity:1;" offset="0.6875"/><stop style="stop-color:#fce7f7;stop-opacity:1;" offset="0.695312"/><stop style="stop-color:#fce7f7;stop-opacity:1;" offset="0.703125"/><stop style="stop-color:#fce8f8;stop-opacity:1;" offset="0.710938"/><stop style="stop-color:#fce8f8;stop-opacity:1;" offset="0.71875"/><stop style="stop-color:#fce9f8;stop-opacity:1;" offset="0.726562"/><stop style="stop-color:#fceaf8;stop-opacity:1;" offset="0.734375"/><stop style="stop-color:#fceaf8;stop-opacity:1;" offset="0.742187"/><stop style="stop-color:#fcebf9;stop-opacity:1;" offset="0.75"/><stop style="stop-color:#fdecf9;stop-opacity:1;" offset="0.757812"/><stop style="stop-color:#fdecf9;stop-opacity:1;" offset="0.765625"/><stop style="stop-color:#fdedf9;stop-opacity:1;" offset="0.773437"/><stop style="stop-color:#fdedf9;stop-opacity:1;" offset="0.78125"/><stop style="stop-color:#fdeefa;stop-opacity:1;" offset="0.789062"/><stop style="stop-color:#fdeffa;stop-opacity:1;" offset="0.796875"/><stop style="stop-color:#fdeffa;stop-opacity:1;" offset="0.804687"/><stop style="stop-color:#fdf0fa;stop-opacity:1;" offset="0.8125"/><stop style="stop-color:#fdf0fa;stop-opacity:1;" offset="0.820312"/><stop style="stop-color:#fdf1fb;stop-opacity:1;" offset="0.828125"/><stop style="stop-color:#fdf2fb;stop-opacity:1;" offset="0.835938"/><stop style="stop-color:#fdf2fb;stop-opacity:1;" offset="0.84375"/><stop style="stop-color:#fdf3fb;stop-opacity:1;" offset="0.851562"/><stop style="stop-color:#fef4fb;stop-opacity:1;" offset="0.859375"/><stop style="stop-color:#fef4fc;stop-opacity:1;" offset="0.867188"/><stop style="stop-color:#fef5fc;stop-opacity:1;" offset="0.875"/><stop style="stop-color:#fef5fc;stop-opacity:1;" offset="0.882812"/><stop style="stop-color:#fef6fc;stop-opacity:1;" offset="0.890625"/><stop style="stop-color:#fef7fc;stop-opacity:1;" offset="0.898438"/><stop style="stop-color:#fef7fd;stop-opacity:1;" offset="0.90625"/><stop style="stop-color:#fef8fd;stop-opacity:1;" offset="0.914062"/><stop style="stop-color:#fef9fd;stop-opacity:1;" offset="0.921875"/><stop style="stop-color:#fef9fd;stop-opacity:1;" offset="0.929687"/><stop style="stop-color:#fefafd;stop-opacity:1;" offset="0.9375"/><stop style="stop-color:#fefafe;stop-opacity:1;" offset="0.945312"/><stop style="stop-color:#fefbfe;stop-opacity:1;" offset="0.953125"/><stop style="stop-color:#fffcfe;stop-opacity:1;" offset="0.960937"/><stop style="stop-color:#fffcfe;stop-opacity:1;" offset="0.96875"/><stop style="stop-color:#fffdfe;stop-opacity:1;" offset="0.976562"/><stop style="stop-color:#fffdff;stop-opacity:1;" offset="0.984375"/><stop style="stop-color:#fffeff;stop-opacity:1;" offset="0.992187"/><stop style="stop-color:#ffffff;stop-opacity:1;" offset="1"/></linearGradient><clipPath id="6f5b0654a7"><rect x="0" width="527" y="0" height="683"/></clipPath><pattern width="527" patternUnits="userSpaceOnUse" patternTransform="matrix(0.999506,0,0,-0.999506,145.128339,830.589808)" id="e4b81d9f53" height="683" preserveAspectRatio="xMidYMid meet"><g><g clip-path="url(#6f5b0654a7)"><rect x="0" width="527" y="0" height="683" style="fill:url(#3a69b9a0f3);stroke:none;" mask="url(#4a21af5587)"/></g></g></pattern><clipPath id="cb59d0ed30"><path d="M 176.804688 188 L 633.039062 188 L 633.039062 555 L 176.804688 555 Z M 176.804688 188 "/></clipPath><clipPath id="d2caaccaf3"><path d="M 218.035156 187.863281 L 591.964844 187.863281 C 602.898438 187.863281 613.386719 192.207031 621.117188 199.941406 C 628.851562 207.671875 633.195312 218.160156 633.195312 229.09375 L 633.195312 513.917969 C 633.195312 524.851562 628.851562 535.335938 621.117188 543.070312 C 613.386719 550.800781 602.898438 555.144531 591.964844 555.144531 L 218.035156 555.144531 C 207.101562 555.144531 196.613281 550.800781 188.882812 543.070312 C 181.148438 535.335938 176.804688 524.851562 176.804688 513.917969 L 176.804688 229.09375 C 176.804688 218.160156 181.148438 207.671875 188.882812 199.941406 C 196.613281 192.207031 207.101562 187.863281 218.035156 187.863281 Z M 218.035156 187.863281 "/></clipPath><clipPath id="15a973ba80"><path d="M 191.339844 671 L 618 671 L 618 801.46875 L 191.339844 801.46875 Z M 191.339844 671 "/></clipPath></defs><g id="d2a08a946a"><g clip-rule="nonzero" clip-path="url(#cb02c33473)"><path style=" stroke:none;fill-rule:nonzero;fill:#ffffff;fill-opacity:1;" d="M 0.199219 0 L 809.800781 0 L 809.800781 1012 L 0.199219 1012 Z M 0.199219 0 "/><path style=" stroke:none;fill-rule:nonzero;fill:#bf4ab8;fill-opacity:1;" d="M 0.199219 0 L 809.800781 0 L 809.800781 1012 L 0.199219 1012 Z M 0.199219 0 "/><g mask="url(#22c76ebd29)" transform="matrix(1,0,0,1,0.000000000000000028,0)"><g clip-path="url(#891679a276)"><g clip-rule="nonzero" clip-path="url(#94a60ec565)"><g transform="matrix(0.214695,0,0,0.214589,-354.474816,0)"><image width="7074" href="" id="bccec563f1" height="4716" preserveAspectRatio="xMidYMid meet"/></g></g></g><mask id="22c76ebd29"><g filter="url(#f227e4fa96)"><rect x="0" width="810" y="0" height="1012.49997" style="fill:#000000;fill-opacity:0.39;stroke:none;"/></g></mask></g></g><g clip-rule="nonzero" clip-path="url(#489d4dd493)"><g clip-rule="nonzero" clip-path="url(#ecbbab4383)"><path style=" stroke:none;fill-rule:nonzero;fill:url(#e4b81d9f53);" d="M 145.238281 147.964844 L 670.992188 147.964844 L 670.992188 830.542969 L 145.238281 830.542969 Z M 145.238281 147.964844 "/></g></g><g clip-rule="nonzero" clip-path="url(#cb59d0ed30)"><g clip-rule="nonzero" clip-path="url(#d2caaccaf3)"><g transform="matrix(0.136637,0,0,0.136637,129.538866,187.864213)"><image width="4032" href="" height="2688" preserveAspectRatio="xMidYMid meet"/></g></g></g><g clip-rule="nonzero" clip-path="url(#15a973ba80)"><path style=" stroke:none;fill-rule:nonzero;fill:#5c0356;fill-opacity:1;" d="M 534.261719 739.667969 L 534.261719 774.53125 L 529.320312 774.53125 L 529.320312 759.359375 L 500.59375 775.894531 L 500.59375 738.304688 L 529.40625 754.925781 L 529.40625 739.667969 Z M 274.875 739.667969 L 274.875 774.53125 L 279.820312 774.53125 L 279.820312 759.359375 L 308.546875 775.894531 L 308.546875 738.304688 L 279.820312 754.925781 L 279.820312 739.667969 Z M 404.613281 712.648438 C 380.0625 712.648438 360.203125 732.507812 360.203125 757.058594 C 360.203125 781.605469 380.0625 801.46875 404.613281 801.46875 C 429.160156 801.46875 449.023438 781.605469 449.023438 757.058594 C 449.023438 732.59375 429.160156 712.648438 404.613281 712.648438 Z M 394.894531 775.894531 L 394.894531 738.304688 L 427.457031 757.140625 Z M 608.59375 742.140625 L 608.59375 747 L 586.261719 747 L 583.617188 752.796875 L 586.003906 754.671875 L 587.964844 750.664062 L 608.679688 750.664062 L 608.679688 755.4375 L 617.796875 748.703125 Z M 592.652344 772.058594 L 592.652344 767.199219 L 615.070312 767.199219 L 617.714844 761.40625 L 615.328125 759.527344 L 613.453125 763.449219 L 592.652344 763.449219 L 592.652344 758.675781 L 583.617188 765.410156 Z M 617.714844 680.085938 L 266.4375 680.085938 C 265.074219 674.03125 259.105469 670.28125 253.054688 671.644531 C 248.878906 672.582031 245.554688 675.90625 244.617188 680.085938 L 191.511719 680.085938 L 191.511719 685.027344 L 244.617188 685.027344 C 245.980469 691.082031 251.945312 694.832031 258 693.46875 C 262.175781 692.53125 265.5 689.207031 266.4375 685.027344 L 617.714844 685.027344 Z M 219.554688 763.535156 L 213.332031 763.535156 L 210.347656 757.058594 L 213.332031 750.578125 L 219.554688 750.578125 L 219.554688 755.691406 L 228.675781 748.960938 L 219.554688 742.226562 L 219.554688 747.339844 L 211.285156 747.339844 L 208.558594 753.222656 L 205.832031 747.425781 L 191.511719 747.425781 L 191.511719 750.664062 L 203.785156 750.664062 L 206.769531 757.140625 L 203.785156 763.621094 L 191.511719 763.621094 L 191.511719 766.859375 L 205.917969 766.859375 L 208.644531 761.0625 L 211.371094 766.859375 L 219.640625 766.859375 L 219.640625 771.972656 L 228.761719 765.238281 L 219.726562 758.507812 L 219.726562 763.535156 Z M 219.554688 763.535156 "/></g><g style="fill:#5c0356;fill-opacity:1;"><g transform="translate(198.609737, 601.16886)"><path style="stroke:none" d="M 2.171875 -27.953125 L 4.828125 -27.953125 L 12.765625 -9.390625 L 12.765625 -27.953125 L 16.015625 -27.953125 L 16.015625 0 L 13.53125 0 L 5.484375 -19.09375 L 5.484375 0 L 2.171875 0 Z M 2.171875 -27.953125 "/></g></g><g style="fill:#5c0356;fill-opacity:1;"><g transform="translate(216.144881, 601.16886)"><path style="stroke:none" d="M 5.453125 0.28125 C 4.691406 0.28125 4.003906 0.0625 3.390625 -0.375 C 2.785156 -0.8125 2.3125 -1.382812 1.96875 -2.09375 C 1.625 -2.8125 1.453125 -3.5625 1.453125 -4.34375 C 1.453125 -5.914062 1.785156 -7.1875 2.453125 -8.15625 C 3.117188 -9.132812 3.96875 -9.910156 5 -10.484375 C 6.039062 -11.066406 7.476562 -11.722656 9.3125 -12.453125 L 9.3125 -13.875 C 9.3125 -15.1875 9.179688 -16.113281 8.921875 -16.65625 C 8.660156 -17.195312 8.125 -17.46875 7.3125 -17.46875 C 5.914062 -17.46875 5.21875 -16.523438 5.21875 -14.640625 L 5.21875 -13.640625 L 1.546875 -13.765625 C 1.597656 -15.972656 2.101562 -17.597656 3.0625 -18.640625 C 4.03125 -19.691406 5.53125 -20.21875 7.5625 -20.21875 C 9.46875 -20.21875 10.851562 -19.691406 11.71875 -18.640625 C 12.582031 -17.597656 13.015625 -16.019531 13.015625 -13.90625 L 13.015625 -4.796875 C 13.015625 -3.296875 13.128906 -1.695312 13.359375 0 L 9.96875 0 C 9.71875 -1.3125 9.554688 -2.289062 9.484375 -2.9375 C 9.210938 -2.039062 8.738281 -1.28125 8.0625 -0.65625 C 7.382812 -0.03125 6.515625 0.28125 5.453125 0.28125 Z M 6.90625 -2.90625 C 7.382812 -2.90625 7.851562 -3.09375 8.3125 -3.46875 C 8.78125 -3.84375 9.113281 -4.207031 9.3125 -4.5625 L 9.3125 -10.21875 C 8.320312 -9.664062 7.554688 -9.1875 7.015625 -8.78125 C 6.484375 -8.382812 6.035156 -7.921875 5.671875 -7.390625 C 5.316406 -6.859375 5.140625 -6.222656 5.140625 -5.484375 C 5.140625 -4.660156 5.289062 -4.023438 5.59375 -3.578125 C 5.894531 -3.128906 6.332031 -2.90625 6.90625 -2.90625 Z M 6.90625 -2.90625 "/></g></g><g style="fill:#5c0356;fill-opacity:1;"><g transform="translate(230.159169, 601.16886)"><path style="stroke:none" d="M 1.859375 -19.953125 L 5.28125 -19.953125 L 5.28125 -18.046875 C 5.945312 -18.785156 6.675781 -19.34375 7.46875 -19.71875 C 8.257812 -20.101562 9.09375 -20.296875 9.96875 -20.296875 C 11.675781 -20.296875 12.757812 -19.457031 13.21875 -17.78125 C 14.601562 -19.457031 16.257812 -20.296875 18.1875 -20.296875 C 19.226562 -20.296875 20.070312 -19.914062 20.71875 -19.15625 C 21.375 -18.394531 21.703125 -17.234375 21.703125 -15.671875 L 21.703125 0 L 18.328125 0 L 18.328125 -15.421875 C 18.328125 -16.347656 18.175781 -16.988281 17.875 -17.34375 C 17.582031 -17.695312 17.160156 -17.875 16.609375 -17.875 C 16.097656 -17.875 15.566406 -17.726562 15.015625 -17.4375 C 14.460938 -17.15625 13.957031 -16.757812 13.5 -16.25 L 13.5 0 L 10.109375 0 L 10.109375 -15.421875 C 10.109375 -16.347656 9.957031 -16.988281 9.65625 -17.34375 C 9.363281 -17.695312 8.941406 -17.875 8.390625 -17.875 C 7.898438 -17.875 7.378906 -17.726562 6.828125 -17.4375 C 6.273438 -17.15625 5.757812 -16.757812 5.28125 -16.25 L 5.28125 0 L 1.859375 0 Z M 1.859375 -19.953125 "/></g></g><g style="fill:#5c0356;fill-opacity:1;"><g transform="translate(252.941069, 601.16886)"><path style="stroke:none" d="M 7.390625 0.28125 C 5.847656 0.28125 4.648438 -0.0078125 3.796875 -0.59375 C 2.941406 -1.1875 2.34375 -2.054688 2 -3.203125 C 1.65625 -4.359375 1.484375 -5.859375 1.484375 -7.703125 L 1.484375 -12.25 C 1.484375 -15.007812 1.914062 -17.023438 2.78125 -18.296875 C 3.644531 -19.578125 5.179688 -20.21875 7.390625 -20.21875 C 8.992188 -20.21875 10.203125 -19.882812 11.015625 -19.21875 C 11.835938 -18.550781 12.378906 -17.613281 12.640625 -16.40625 C 12.910156 -15.195312 13.046875 -13.570312 13.046875 -11.53125 L 13.046875 -9.90625 L 5.171875 -9.90625 L 5.171875 -5.90625 C 5.171875 -4.6875 5.347656 -3.804688 5.703125 -3.265625 C 6.066406 -2.722656 6.640625 -2.453125 7.421875 -2.453125 C 8.203125 -2.453125 8.726562 -2.722656 9 -3.265625 C 9.28125 -3.804688 9.421875 -4.628906 9.421875 -5.734375 L 9.421875 -6.9375 L 13.015625 -6.9375 L 13.015625 -6.171875 C 13.015625 -4.078125 12.5625 -2.476562 11.65625 -1.375 C 10.757812 -0.269531 9.335938 0.28125 7.390625 0.28125 Z M 9.421875 -11.90625 L 9.421875 -13.703125 C 9.421875 -15.054688 9.285156 -16.023438 9.015625 -16.609375 C 8.753906 -17.203125 8.203125 -17.5 7.359375 -17.5 C 6.753906 -17.5 6.296875 -17.359375 5.984375 -17.078125 C 5.671875 -16.804688 5.457031 -16.351562 5.34375 -15.71875 C 5.226562 -15.082031 5.171875 -14.171875 5.171875 -12.984375 L 5.171875 -11.90625 Z M 9.421875 -11.90625 "/></g></g><g style="fill:#5c0356;fill-opacity:1;"><g transform="translate(198.609737, 643.604477)"><path style="stroke:none" d="M 1.609375 -20.71875 L 9.625 -20.71875 L 9.625 -18.640625 L 4.5 -18.640625 L 4.5 -11.734375 L 8.46875 -11.734375 L 8.46875 -9.6875 L 4.5 -9.6875 L 4.5 0 L 1.609375 0 Z M 1.609375 -20.71875 "/></g></g><g style="fill:#5c0356;fill-opacity:1;"><g transform="translate(208.095821, 643.604477)"><path style="stroke:none" d="M 4.046875 0.203125 C 3.484375 0.203125 2.972656 0.0390625 2.515625 -0.28125 C 2.066406 -0.601562 1.710938 -1.03125 1.453125 -1.5625 C 1.203125 -2.09375 1.078125 -2.644531 1.078125 -3.21875 C 1.078125 -4.382812 1.320312 -5.328125 1.8125 -6.046875 C 2.3125 -6.773438 2.941406 -7.351562 3.703125 -7.78125 C 4.472656 -8.207031 5.539062 -8.691406 6.90625 -9.234375 L 6.90625 -10.28125 C 6.90625 -11.25 6.804688 -11.929688 6.609375 -12.328125 C 6.410156 -12.734375 6.015625 -12.9375 5.421875 -12.9375 C 4.378906 -12.9375 3.859375 -12.238281 3.859375 -10.84375 L 3.859375 -10.109375 L 1.15625 -10.203125 C 1.1875 -11.835938 1.554688 -13.039062 2.265625 -13.8125 C 2.984375 -14.59375 4.097656 -14.984375 5.609375 -14.984375 C 7.015625 -14.984375 8.035156 -14.59375 8.671875 -13.8125 C 9.316406 -13.039062 9.640625 -11.875 9.640625 -10.3125 L 9.640625 -3.5625 C 9.640625 -2.445312 9.726562 -1.257812 9.90625 0 L 7.390625 0 C 7.203125 -0.96875 7.082031 -1.691406 7.03125 -2.171875 C 6.832031 -1.503906 6.476562 -0.941406 5.96875 -0.484375 C 5.46875 -0.0234375 4.828125 0.203125 4.046875 0.203125 Z M 5.109375 -2.15625 C 5.472656 -2.15625 5.820312 -2.296875 6.15625 -2.578125 C 6.5 -2.859375 6.75 -3.125 6.90625 -3.375 L 6.90625 -7.578125 C 6.175781 -7.160156 5.609375 -6.800781 5.203125 -6.5 C 4.804688 -6.207031 4.472656 -5.863281 4.203125 -5.46875 C 3.941406 -5.082031 3.8125 -4.613281 3.8125 -4.0625 C 3.8125 -3.445312 3.921875 -2.972656 4.140625 -2.640625 C 4.359375 -2.316406 4.679688 -2.15625 5.109375 -2.15625 Z M 5.109375 -2.15625 "/></g></g><g style="fill:#5c0356;fill-opacity:1;"><g transform="translate(218.476825, 643.604477)"><path style="stroke:none" d="M 0.390625 -14.78125 L 3.140625 -14.78125 L 4.96875 -2.890625 L 6.796875 -14.78125 L 9.46875 -14.78125 L 6.65625 0 L 3.296875 0 Z M 0.390625 -14.78125 "/></g></g><g style="fill:#5c0356;fill-opacity:1;"><g transform="translate(227.809484, 643.604477)"><path style="stroke:none" d="M 5.453125 0.203125 C 3.878906 0.203125 2.765625 -0.257812 2.109375 -1.1875 C 1.453125 -2.113281 1.125 -3.46875 1.125 -5.25 L 1.125 -9.546875 C 1.125 -11.316406 1.453125 -12.664062 2.109375 -13.59375 C 2.765625 -14.519531 3.878906 -14.984375 5.453125 -14.984375 C 7.003906 -14.984375 8.109375 -14.519531 8.765625 -13.59375 C 9.421875 -12.664062 9.75 -11.316406 9.75 -9.546875 L 9.75 -5.25 C 9.75 -3.46875 9.421875 -2.113281 8.765625 -1.1875 C 8.109375 -0.257812 7.003906 0.203125 5.453125 0.203125 Z M 5.453125 -1.8125 C 5.941406 -1.8125 6.296875 -1.957031 6.515625 -2.25 C 6.742188 -2.539062 6.882812 -2.898438 6.9375 -3.328125 C 6.988281 -3.753906 7.015625 -4.332031 7.015625 -5.0625 L 7.015625 -9.6875 C 7.015625 -10.425781 6.988281 -11.007812 6.9375 -11.4375 C 6.882812 -11.875 6.742188 -12.238281 6.515625 -12.53125 C 6.296875 -12.820312 5.941406 -12.96875 5.453125 -12.96875 C 4.953125 -12.96875 4.585938 -12.820312 4.359375 -12.53125 C 4.128906 -12.238281 3.988281 -11.875 3.9375 -11.4375 C 3.882812 -11.007812 3.859375 -10.425781 3.859375 -9.6875 L 3.859375 -5.0625 C 3.859375 -4.332031 3.882812 -3.753906 3.9375 -3.328125 C 3.988281 -2.898438 4.128906 -2.539062 4.359375 -2.25 C 4.585938 -1.957031 4.953125 -1.8125 5.453125 -1.8125 Z M 5.453125 -1.8125 "/></g></g><g style="fill:#5c0356;fill-opacity:1;"><g transform="translate(238.164923, 643.604477)"><path style="stroke:none" d="M 1.453125 -14.78125 L 4.1875 -14.78125 L 4.1875 -12.6875 C 4.707031 -13.519531 5.234375 -14.109375 5.765625 -14.453125 C 6.304688 -14.796875 6.875 -14.96875 7.46875 -14.96875 C 7.625 -14.96875 7.769531 -14.957031 7.90625 -14.9375 L 7.90625 -11.921875 C 7.351562 -12.117188 6.847656 -12.21875 6.390625 -12.21875 C 5.953125 -12.21875 5.554688 -12.113281 5.203125 -11.90625 C 4.859375 -11.695312 4.519531 -11.328125 4.1875 -10.796875 L 4.1875 0 L 1.453125 0 Z M 1.453125 -14.78125 "/></g></g><g style="fill:#5c0356;fill-opacity:1;"><g transform="translate(245.861142, 643.604477)"><path style="stroke:none" d="M 1.5625 -19.84375 L 4.296875 -19.84375 L 4.296875 -16.984375 L 1.5625 -16.984375 Z M 1.5625 -14.78125 L 4.296875 -14.78125 L 4.296875 0 L 1.5625 0 Z M 1.5625 -14.78125 "/></g></g><g style="fill:#5c0356;fill-opacity:1;"><g transform="translate(251.204976, 643.604477)"><path style="stroke:none" d="M 5.3125 0.203125 C 3.1875 0.203125 2.125 -0.972656 2.125 -3.328125 L 2.125 -12.96875 L 0.5625 -12.96875 L 0.5625 -14.78125 L 2.125 -14.78125 L 2.125 -19.109375 L 4.859375 -19.109375 L 4.859375 -14.78125 L 7.234375 -14.78125 L 7.234375 -12.96875 L 4.859375 -12.96875 L 4.859375 -3.5 C 4.859375 -2.90625 4.953125 -2.488281 5.140625 -2.25 C 5.328125 -2.007812 5.6875 -1.890625 6.21875 -1.890625 C 6.5625 -1.890625 6.894531 -1.914062 7.21875 -1.96875 L 7.21875 0.046875 C 6.53125 0.148438 5.894531 0.203125 5.3125 0.203125 Z M 5.3125 0.203125 "/></g></g><g style="fill:#5c0356;fill-opacity:1;"><g transform="translate(258.568794, 643.604477)"><path style="stroke:none" d="M 5.46875 0.203125 C 4.332031 0.203125 3.445312 -0.0078125 2.8125 -0.4375 C 2.1875 -0.875 1.742188 -1.519531 1.484375 -2.375 C 1.222656 -3.226562 1.09375 -4.335938 1.09375 -5.703125 L 1.09375 -9.078125 C 1.09375 -11.128906 1.410156 -12.625 2.046875 -13.5625 C 2.691406 -14.507812 3.832031 -14.984375 5.46875 -14.984375 C 6.664062 -14.984375 7.566406 -14.734375 8.171875 -14.234375 C 8.773438 -13.742188 9.175781 -13.050781 9.375 -12.15625 C 9.570312 -11.257812 9.671875 -10.054688 9.671875 -8.546875 L 9.671875 -7.34375 L 3.84375 -7.34375 L 3.84375 -4.375 C 3.84375 -3.46875 3.972656 -2.8125 4.234375 -2.40625 C 4.492188 -2.007812 4.914062 -1.8125 5.5 -1.8125 C 6.082031 -1.8125 6.472656 -2.007812 6.671875 -2.40625 C 6.878906 -2.8125 6.984375 -3.425781 6.984375 -4.25 L 6.984375 -5.140625 L 9.640625 -5.140625 L 9.640625 -4.578125 C 9.640625 -3.023438 9.304688 -1.835938 8.640625 -1.015625 C 7.972656 -0.203125 6.914062 0.203125 5.46875 0.203125 Z M 6.984375 -8.828125 L 6.984375 -10.15625 C 6.984375 -11.15625 6.882812 -11.875 6.6875 -12.3125 C 6.488281 -12.75 6.078125 -12.96875 5.453125 -12.96875 C 5.003906 -12.96875 4.664062 -12.863281 4.4375 -12.65625 C 4.207031 -12.457031 4.050781 -12.125 3.96875 -11.65625 C 3.882812 -11.1875 3.84375 -10.507812 3.84375 -9.625 L 3.84375 -8.828125 Z M 6.984375 -8.828125 "/></g></g><g style="fill:#5c0356;fill-opacity:1;"><g transform="translate(268.821951, 643.604477)"><path style="stroke:none" d=""/></g></g><g style="fill:#5c0356;fill-opacity:1;"><g transform="translate(274.165785, 643.604477)"><path style="stroke:none" d="M 4.8125 0.203125 C 3.613281 0.203125 2.644531 -0.171875 1.90625 -0.921875 C 1.164062 -1.671875 0.742188 -2.675781 0.640625 -3.9375 L 2.921875 -4.625 C 3.054688 -3.675781 3.289062 -2.96875 3.625 -2.5 C 3.957031 -2.039062 4.425781 -1.8125 5.03125 -1.8125 C 5.507812 -1.8125 5.878906 -1.953125 6.140625 -2.234375 C 6.410156 -2.515625 6.546875 -2.894531 6.546875 -3.375 C 6.546875 -3.800781 6.453125 -4.179688 6.265625 -4.515625 C 6.078125 -4.859375 5.769531 -5.210938 5.34375 -5.578125 L 2.8125 -7.75 C 2.226562 -8.238281 1.78125 -8.757812 1.46875 -9.3125 C 1.15625 -9.875 1 -10.554688 1 -11.359375 C 1 -12.503906 1.335938 -13.394531 2.015625 -14.03125 C 2.703125 -14.664062 3.632812 -14.984375 4.8125 -14.984375 C 5.9375 -14.984375 6.816406 -14.617188 7.453125 -13.890625 C 8.097656 -13.171875 8.46875 -12.238281 8.5625 -11.09375 L 6.734375 -10.40625 C 6.609375 -11.238281 6.410156 -11.875 6.140625 -12.3125 C 5.867188 -12.75 5.457031 -12.96875 4.90625 -12.96875 C 4.46875 -12.96875 4.113281 -12.820312 3.84375 -12.53125 C 3.582031 -12.238281 3.453125 -11.878906 3.453125 -11.453125 C 3.453125 -10.910156 3.695312 -10.414062 4.1875 -9.96875 L 6.796875 -7.578125 C 7.460938 -6.960938 7.976562 -6.351562 8.34375 -5.75 C 8.71875 -5.15625 8.90625 -4.429688 8.90625 -3.578125 C 8.90625 -2.347656 8.535156 -1.410156 7.796875 -0.765625 C 7.066406 -0.117188 6.070312 0.203125 4.8125 0.203125 Z M 4.8125 0.203125 "/></g></g><g style="fill:#5c0356;fill-opacity:1;"><g transform="translate(283.217185, 643.604477)"><path style="stroke:none" d="M 5.453125 0.203125 C 3.878906 0.203125 2.765625 -0.257812 2.109375 -1.1875 C 1.453125 -2.113281 1.125 -3.46875 1.125 -5.25 L 1.125 -9.546875 C 1.125 -11.316406 1.453125 -12.664062 2.109375 -13.59375 C 2.765625 -14.519531 3.878906 -14.984375 5.453125 -14.984375 C 7.003906 -14.984375 8.109375 -14.519531 8.765625 -13.59375 C 9.421875 -12.664062 9.75 -11.316406 9.75 -9.546875 L 9.75 -5.25 C 9.75 -3.46875 9.421875 -2.113281 8.765625 -1.1875 C 8.109375 -0.257812 7.003906 0.203125 5.453125 0.203125 Z M 5.453125 -1.8125 C 5.941406 -1.8125 6.296875 -1.957031 6.515625 -2.25 C 6.742188 -2.539062 6.882812 -2.898438 6.9375 -3.328125 C 6.988281 -3.753906 7.015625 -4.332031 7.015625 -5.0625 L 7.015625 -9.6875 C 7.015625 -10.425781 6.988281 -11.007812 6.9375 -11.4375 C 6.882812 -11.875 6.742188 -12.238281 6.515625 -12.53125 C 6.296875 -12.820312 5.941406 -12.96875 5.453125 -12.96875 C 4.953125 -12.96875 4.585938 -12.820312 4.359375 -12.53125 C 4.128906 -12.238281 3.988281 -11.875 3.9375 -11.4375 C 3.882812 -11.007812 3.859375 -10.425781 3.859375 -9.6875 L 3.859375 -5.0625 C 3.859375 -4.332031 3.882812 -3.753906 3.9375 -3.328125 C 3.988281 -2.898438 4.128906 -2.539062 4.359375 -2.25 C 4.585938 -1.957031 4.953125 -1.8125 5.453125 -1.8125 Z M 5.453125 -1.8125 "/></g></g><g style="fill:#5c0356;fill-opacity:1;"><g transform="translate(293.572624, 643.604477)"><path style="stroke:none" d="M 1.375 -14.78125 L 4.125 -14.78125 L 4.125 -13.328125 C 5.300781 -14.429688 6.5 -14.984375 7.71875 -14.984375 C 8.519531 -14.984375 9.09375 -14.691406 9.4375 -14.109375 C 9.78125 -13.535156 9.953125 -12.820312 9.953125 -11.96875 L 9.953125 0 L 7.21875 0 L 7.21875 -11.171875 C 7.21875 -11.734375 7.128906 -12.148438 6.953125 -12.421875 C 6.785156 -12.703125 6.476562 -12.84375 6.03125 -12.84375 C 5.488281 -12.84375 4.851562 -12.535156 4.125 -11.921875 L 4.125 0 L 1.375 0 Z M 1.375 -14.78125 "/></g></g><g style="fill:#5c0356;fill-opacity:1;"><g transform="translate(304.286029, 643.604477)"><path style="stroke:none" d="M 5.21875 4.578125 C 3.78125 4.578125 2.632812 4.347656 1.78125 3.890625 C 0.9375 3.441406 0.515625 2.742188 0.515625 1.796875 C 0.515625 1.140625 0.710938 0.570312 1.109375 0.09375 C 1.515625 -0.375 2.023438 -0.753906 2.640625 -1.046875 C 2.171875 -1.179688 1.8125 -1.394531 1.5625 -1.6875 C 1.320312 -1.976562 1.203125 -2.296875 1.203125 -2.640625 C 1.203125 -3.148438 1.328125 -3.59375 1.578125 -3.96875 C 1.835938 -4.34375 2.257812 -4.789062 2.84375 -5.3125 C 2.257812 -5.757812 1.828125 -6.316406 1.546875 -6.984375 C 1.265625 -7.660156 1.125 -8.570312 1.125 -9.71875 C 1.125 -11.4375 1.476562 -12.742188 2.1875 -13.640625 C 2.894531 -14.535156 3.929688 -14.984375 5.296875 -14.984375 C 6.078125 -14.984375 6.710938 -14.847656 7.203125 -14.578125 C 7.703125 -14.304688 8.082031 -13.898438 8.34375 -13.359375 C 8.457031 -13.546875 8.707031 -13.796875 9.09375 -14.109375 C 9.476562 -14.421875 9.890625 -14.679688 10.328125 -14.890625 L 10.75 -15.0625 L 11.4375 -13.296875 C 11.09375 -13.234375 10.617188 -13.085938 10.015625 -12.859375 C 9.410156 -12.640625 9.046875 -12.472656 8.921875 -12.359375 C 9.046875 -12.046875 9.15625 -11.613281 9.25 -11.0625 C 9.34375 -10.519531 9.390625 -10.046875 9.390625 -9.640625 C 9.390625 -8.023438 9.070312 -6.769531 8.4375 -5.875 C 7.8125 -4.976562 6.765625 -4.53125 5.296875 -4.53125 C 4.835938 -4.53125 4.367188 -4.585938 3.890625 -4.703125 C 3.566406 -4.222656 3.40625 -3.847656 3.40625 -3.578125 C 3.40625 -3.390625 3.5 -3.238281 3.6875 -3.125 C 3.882812 -3.019531 4.195312 -2.953125 4.625 -2.921875 L 6.9375 -2.71875 C 8.09375 -2.613281 8.953125 -2.257812 9.515625 -1.65625 C 10.078125 -1.0625 10.359375 -0.210938 10.359375 0.890625 C 10.359375 3.347656 8.644531 4.578125 5.21875 4.578125 Z M 5.296875 -6.453125 C 6.023438 -6.453125 6.5 -6.707031 6.71875 -7.21875 C 6.945312 -7.726562 7.0625 -8.5625 7.0625 -9.71875 C 7.0625 -10.894531 6.945312 -11.75 6.71875 -12.28125 C 6.5 -12.820312 6.03125 -13.09375 5.3125 -13.09375 C 4.601562 -13.09375 4.125 -12.820312 3.875 -12.28125 C 3.625 -11.75 3.5 -10.894531 3.5 -9.71875 C 3.5 -8.664062 3.625 -7.859375 3.875 -7.296875 C 4.125 -6.734375 4.597656 -6.453125 5.296875 -6.453125 Z M 5.421875 2.4375 C 6.390625 2.4375 7.101562 2.316406 7.5625 2.078125 C 8.03125 1.847656 8.265625 1.476562 8.265625 0.96875 C 8.265625 0.488281 8.117188 0.132812 7.828125 -0.09375 C 7.535156 -0.320312 7.003906 -0.46875 6.234375 -0.53125 L 3.90625 -0.734375 C 3.550781 -0.378906 3.28125 -0.0664062 3.09375 0.203125 C 2.90625 0.472656 2.8125 0.769531 2.8125 1.09375 C 2.8125 1.5625 3.003906 1.898438 3.390625 2.109375 C 3.773438 2.328125 4.453125 2.4375 5.421875 2.4375 Z M 5.421875 2.4375 "/></g></g><g style="fill:#ffffff;fill-opacity:1;"><g transform="translate(326.052, 924.731334)"><path style="stroke:none" d="M 10.78125 7.4375 C 8.5 7.4375 6.894531 7.257812 5.96875 6.90625 C 5.050781 6.550781 4.460938 5.875 4.203125 4.875 C 3.941406 3.882812 3.8125 2.128906 3.8125 -0.390625 L 3.8125 -5.875 C 3.8125 -7.320312 3.753906 -8.375 3.640625 -9.03125 C 3.523438 -9.695312 3.3125 -10.144531 3 -10.375 C 2.6875 -10.613281 2.207031 -10.734375 1.5625 -10.734375 L 1.5625 -13.625 C 2.207031 -13.625 2.6875 -13.738281 3 -13.96875 C 3.3125 -14.195312 3.523438 -14.648438 3.640625 -15.328125 C 3.753906 -16.003906 3.8125 -17.066406 3.8125 -18.515625 L 3.8125 -23.96875 C 3.8125 -26.476562 3.941406 -28.234375 4.203125 -29.234375 C 4.460938 -30.234375 5.050781 -30.90625 5.96875 -31.25 C 6.894531 -31.601562 8.5 -31.78125 10.78125 -31.78125 L 10.78125 -28.71875 C 9.875 -28.71875 9.25 -28.617188 8.90625 -28.421875 C 8.570312 -28.222656 8.363281 -27.832031 8.28125 -27.25 C 8.207031 -26.664062 8.171875 -25.570312 8.171875 -23.96875 L 8.171875 -17.890625 C 8.171875 -16.054688 7.945312 -14.695312 7.5 -13.8125 C 7.0625 -12.925781 6.429688 -12.378906 5.609375 -12.171875 C 6.429688 -11.992188 7.0625 -11.460938 7.5 -10.578125 C 7.945312 -9.703125 8.171875 -8.34375 8.171875 -6.5 L 8.171875 -0.390625 C 8.171875 1.242188 8.207031 2.347656 8.28125 2.921875 C 8.363281 3.492188 8.570312 3.875 8.90625 4.0625 C 9.25 4.257812 9.875 4.359375 10.78125 4.359375 Z M 10.78125 7.4375 "/></g></g><g style="fill:#ffffff;fill-opacity:1;"><g transform="translate(336.940025, 924.731334)"><path style="stroke:none" d="M 9.875 0.34375 C 7.226562 0.34375 5.210938 -0.46875 3.828125 -2.09375 C 2.441406 -3.726562 1.671875 -5.972656 1.515625 -8.828125 L 5.40625 -9.875 C 5.539062 -7.851562 5.9375 -6.21875 6.59375 -4.96875 C 7.257812 -3.726562 8.351562 -3.109375 9.875 -3.109375 C 11.019531 -3.109375 11.882812 -3.425781 12.46875 -4.0625 C 13.050781 -4.695312 13.34375 -5.613281 13.34375 -6.8125 C 13.34375 -8.101562 13.066406 -9.175781 12.515625 -10.03125 C 11.972656 -10.894531 11.109375 -11.84375 9.921875 -12.875 L 4.625 -17.546875 C 3.5625 -18.484375 2.789062 -19.488281 2.3125 -20.5625 C 1.832031 -21.632812 1.59375 -22.953125 1.59375 -24.515625 C 1.59375 -26.816406 2.253906 -28.601562 3.578125 -29.875 C 4.898438 -31.144531 6.703125 -31.78125 8.984375 -31.78125 C 11.472656 -31.78125 13.351562 -31.117188 14.625 -29.796875 C 15.894531 -28.472656 16.660156 -26.425781 16.921875 -23.65625 L 13.1875 -22.640625 C 13.0625 -24.484375 12.707031 -25.90625 12.125 -26.90625 C 11.539062 -27.90625 10.492188 -28.40625 8.984375 -28.40625 C 7.867188 -28.40625 7.015625 -28.113281 6.421875 -27.53125 C 5.828125 -26.945312 5.53125 -26.082031 5.53125 -24.9375 C 5.53125 -24 5.679688 -23.210938 5.984375 -22.578125 C 6.296875 -21.941406 6.832031 -21.300781 7.59375 -20.65625 L 12.921875 -15.984375 C 14.296875 -14.765625 15.390625 -13.441406 16.203125 -12.015625 C 17.023438 -10.585938 17.4375 -8.96875 17.4375 -7.15625 C 17.4375 -4.851562 16.734375 -3.023438 15.328125 -1.671875 C 13.929688 -0.328125 12.113281 0.34375 9.875 0.34375 Z M 9.875 0.34375 "/></g></g><g style="fill:#ffffff;fill-opacity:1;"><g transform="translate(354.555593, 924.731334)"><path style="stroke:none" d="M 5.328125 0.3125 C 4.109375 0.3125 3.238281 -0.125 2.71875 -1 C 2.207031 -1.882812 1.953125 -2.976562 1.953125 -4.28125 L 1.953125 -22.484375 L 6.109375 -22.484375 L 6.109375 -5.53125 C 6.109375 -4.664062 6.238281 -4.019531 6.5 -3.59375 C 6.757812 -3.164062 7.222656 -2.953125 7.890625 -2.953125 C 8.722656 -2.953125 9.695312 -3.421875 10.8125 -4.359375 L 10.8125 -22.484375 L 14.984375 -22.484375 L 14.984375 0 L 10.8125 0 L 10.8125 -2.21875 C 9.019531 -0.53125 7.191406 0.3125 5.328125 0.3125 Z M 5.328125 0.3125 "/></g></g><g style="fill:#ffffff;fill-opacity:1;"><g transform="translate(370.88788, 924.731334)"><path style="stroke:none" d="M 10.15625 0.3125 C 8.800781 0.3125 7.53125 -0.335938 6.34375 -1.640625 L 6.34375 0 L 2.171875 0 L 2.171875 -31.515625 L 6.34375 -31.515625 L 6.34375 -20.703125 C 7.5625 -22.097656 8.972656 -22.796875 10.578125 -22.796875 C 12.628906 -22.796875 14 -21.921875 14.6875 -20.171875 C 15.375 -18.421875 15.71875 -16.484375 15.71875 -14.359375 L 15.71875 -8.90625 C 15.71875 -2.757812 13.863281 0.3125 10.15625 0.3125 Z M 9.296875 -2.953125 C 10.253906 -2.953125 10.867188 -3.4375 11.140625 -4.40625 C 11.421875 -5.382812 11.5625 -6.882812 11.5625 -8.90625 L 11.5625 -14.359375 C 11.5625 -16.015625 11.40625 -17.289062 11.09375 -18.1875 C 10.78125 -19.082031 10.128906 -19.53125 9.140625 -19.53125 C 8.234375 -19.53125 7.300781 -19.15625 6.34375 -18.40625 L 6.34375 -3.96875 C 7.195312 -3.289062 8.179688 -2.953125 9.296875 -2.953125 Z M 9.296875 -2.953125 "/></g></g><g style="fill:#ffffff;fill-opacity:1;"><g transform="translate(387.492365, 924.731334)"><path style="stroke:none" d="M 8.09375 0.3125 C 4.851562 0.3125 3.234375 -1.476562 3.234375 -5.0625 L 3.234375 -19.71875 L 0.859375 -19.71875 L 0.859375 -22.484375 L 3.234375 -22.484375 L 3.234375 -29.0625 L 7.390625 -29.0625 L 7.390625 -22.484375 L 11.015625 -22.484375 L 11.015625 -19.71875 L 7.390625 -19.71875 L 7.390625 -5.328125 C 7.390625 -4.421875 7.53125 -3.785156 7.8125 -3.421875 C 8.101562 -3.054688 8.648438 -2.875 9.453125 -2.875 C 9.972656 -2.875 10.476562 -2.914062 10.96875 -3 L 10.96875 0.078125 C 9.9375 0.234375 8.976562 0.3125 8.09375 0.3125 Z M 8.09375 0.3125 "/></g></g><g style="fill:#ffffff;fill-opacity:1;"><g transform="translate(398.691483, 924.731334)"><path style="stroke:none" d="M 2.375 -30.1875 L 6.53125 -30.1875 L 6.53125 -25.828125 L 2.375 -25.828125 Z M 2.375 -22.484375 L 6.53125 -22.484375 L 6.53125 0 L 2.375 0 Z M 2.375 -22.484375 "/></g></g><g style="fill:#ffffff;fill-opacity:1;"><g transform="translate(406.818491, 924.731334)"><path style="stroke:none" d="M 8.09375 0.3125 C 4.851562 0.3125 3.234375 -1.476562 3.234375 -5.0625 L 3.234375 -19.71875 L 0.859375 -19.71875 L 0.859375 -22.484375 L 3.234375 -22.484375 L 3.234375 -29.0625 L 7.390625 -29.0625 L 7.390625 -22.484375 L 11.015625 -22.484375 L 11.015625 -19.71875 L 7.390625 -19.71875 L 7.390625 -5.328125 C 7.390625 -4.421875 7.53125 -3.785156 7.8125 -3.421875 C 8.101562 -3.054688 8.648438 -2.875 9.453125 -2.875 C 9.972656 -2.875 10.476562 -2.914062 10.96875 -3 L 10.96875 0.078125 C 9.9375 0.234375 8.976562 0.3125 8.09375 0.3125 Z M 8.09375 0.3125 "/></g></g><g style="fill:#ffffff;fill-opacity:1;"><g transform="translate(418.017609, 924.731334)"><path style="stroke:none" d="M 2.484375 -31.515625 L 6.65625 -31.515625 L 6.65625 0 L 2.484375 0 Z M 2.484375 -31.515625 "/></g></g><g style="fill:#ffffff;fill-opacity:1;"><g transform="translate(426.144617, 924.731334)"><path style="stroke:none" d="M 8.328125 0.3125 C 6.585938 0.3125 5.238281 -0.015625 4.28125 -0.671875 C 3.320312 -1.335938 2.644531 -2.316406 2.25 -3.609375 C 1.863281 -4.910156 1.671875 -6.597656 1.671875 -8.671875 L 1.671875 -13.8125 C 1.671875 -16.925781 2.15625 -19.203125 3.125 -20.640625 C 4.101562 -22.078125 5.835938 -22.796875 8.328125 -22.796875 C 10.140625 -22.796875 11.503906 -22.421875 12.421875 -21.671875 C 13.347656 -20.921875 13.957031 -19.863281 14.25 -18.5 C 14.550781 -17.132812 14.703125 -15.300781 14.703125 -13 L 14.703125 -11.171875 L 5.84375 -11.171875 L 5.84375 -6.65625 C 5.84375 -5.28125 6.039062 -4.285156 6.4375 -3.671875 C 6.84375 -3.066406 7.484375 -2.765625 8.359375 -2.765625 C 9.242188 -2.765625 9.84375 -3.066406 10.15625 -3.671875 C 10.46875 -4.285156 10.625 -5.210938 10.625 -6.453125 L 10.625 -7.8125 L 14.671875 -7.8125 L 14.671875 -6.96875 C 14.671875 -4.601562 14.164062 -2.796875 13.15625 -1.546875 C 12.144531 -0.304688 10.535156 0.3125 8.328125 0.3125 Z M 10.625 -13.421875 L 10.625 -15.453125 C 10.625 -16.972656 10.472656 -18.0625 10.171875 -18.71875 C 9.878906 -19.382812 9.25 -19.71875 8.28125 -19.71875 C 7.613281 -19.71875 7.101562 -19.5625 6.75 -19.25 C 6.394531 -18.945312 6.15625 -18.4375 6.03125 -17.71875 C 5.90625 -17.007812 5.84375 -15.976562 5.84375 -14.625 L 5.84375 -13.421875 Z M 10.625 -13.421875 "/></g></g><g style="fill:#ffffff;fill-opacity:1;"><g transform="translate(441.738036, 924.731334)"><path style="stroke:none" d="M 1.71875 4.359375 C 2.625 4.359375 3.242188 4.257812 3.578125 4.0625 C 3.910156 3.875 4.113281 3.492188 4.1875 2.921875 C 4.269531 2.347656 4.3125 1.242188 4.3125 -0.390625 L 4.3125 -6.5 C 4.3125 -8.34375 4.53125 -9.703125 4.96875 -10.578125 C 5.414062 -11.460938 6.066406 -11.992188 6.921875 -12.171875 C 6.066406 -12.378906 5.414062 -12.925781 4.96875 -13.8125 C 4.53125 -14.695312 4.3125 -16.054688 4.3125 -17.890625 L 4.3125 -23.96875 C 4.3125 -25.570312 4.269531 -26.664062 4.1875 -27.25 C 4.113281 -27.832031 3.910156 -28.222656 3.578125 -28.421875 C 3.242188 -28.617188 2.625 -28.71875 1.71875 -28.71875 L 1.71875 -31.78125 C 4 -31.78125 5.597656 -31.601562 6.515625 -31.25 C 7.429688 -30.90625 8.019531 -30.234375 8.28125 -29.234375 C 8.539062 -28.234375 8.671875 -26.476562 8.671875 -23.96875 L 8.671875 -18.515625 C 8.671875 -17.035156 8.726562 -15.960938 8.84375 -15.296875 C 8.96875 -14.640625 9.175781 -14.195312 9.46875 -13.96875 C 9.769531 -13.738281 10.257812 -13.625 10.9375 -13.625 L 10.9375 -10.734375 C 10.257812 -10.734375 9.769531 -10.613281 9.46875 -10.375 C 9.175781 -10.144531 8.96875 -9.695312 8.84375 -9.03125 C 8.726562 -8.375 8.671875 -7.320312 8.671875 -5.875 L 8.671875 -0.390625 C 8.671875 2.128906 8.539062 3.882812 8.28125 4.875 C 8.019531 5.875 7.429688 6.550781 6.515625 6.90625 C 5.597656 7.257812 4 7.4375 1.71875 7.4375 Z M 1.71875 4.359375 "/></g></g></g></svg>